<?xml version="1.0" standalone="no"?><!DOCTYPE svg PUBLIC "-//W3C//DTD SVG 1.1//EN" "http://www.w3.org/Graphics/SVG/1.1/DTD/svg11.dtd"><svg t="1517406469480" class="icon" style="" viewBox="0 0 1024 1024" version="1.1" xmlns="http://www.w3.org/2000/svg" p-id="6292" xmlns:xlink="http://www.w3.org/1999/xlink" width="200" height="200"><defs><style type="text/css"></style></defs><path d="M0.4335 1.257151h1021.478473v1021.492923H0.4335z" fill="#769AFF" p-id="6293"></path><path d="M0.4335 1.257151l1021.471248 1021.485698M0.4335 1022.742849L1021.904748 1.257151" fill="#769AFF" p-id="6294"></path><path d="M874.897566 165.445396H146.046257a50.575037 50.575037 0 0 0-50.575037 50.575037v579.792225a50.596712 50.596712 0 0 0 50.575037 50.575037 50.647287 50.647287 0 0 0 26.645819-7.579031l208.015128-128.908544h494.190362a50.575037 50.575037 0 0 0 50.575037-50.575037V216.020433a50.575037 50.575037 0 0 0-50.575037-50.575037z m-611.343823 334.445495c-31.443223 0-57.026967-25.583744-57.026967-57.034192 0-31.435998 25.583744-57.019742 57.026967-57.019741s57.026967 25.583744 57.026967 57.019741c-0.007225 31.450448-25.590969 57.034192-57.026967 57.034192z m242.037677 0c-31.443223 0-57.026967-25.583744-57.026966-57.034192 0-31.435998 25.583744-57.019742 57.026966-57.019741s57.026967 25.583744 57.026967 57.019741c-0.007225 31.450448-25.590969 57.034192-57.026967 57.034192z m242.037678 0c-31.443223 0-57.026967-25.583744-57.026967-57.034192 0-31.435998 25.583744-57.019742 57.026967-57.019741s57.026967 25.583744 57.026966 57.019741c-0.007225 31.450448-25.590969 57.034192-57.026966 57.034192z" fill="#FFFFFF" p-id="6295"></path></svg>