<?xml version="1.0" standalone="no"?><!DOCTYPE svg PUBLIC "-//W3C//DTD SVG 1.1//EN" "http://www.w3.org/Graphics/SVG/1.1/DTD/svg11.dtd"><svg t="1513526432289" class="icon" style="" viewBox="0 0 1024 1024" version="1.1" xmlns="http://www.w3.org/2000/svg" p-id="2421" xmlns:xlink="http://www.w3.org/1999/xlink" width="200" height="200"><defs><style type="text/css"></style></defs><path d="M608 467.2c57.6-38.4 96-102.4 96-179.2C704 166.4 601.6 64 480 64S256 166.4 256 288c0 76.8 38.4 140.8 96 179.2-192 64-332.8 256-345.6 492.8h64c12.8-249.6 192-448 416-448s403.2 198.4 416 448h64c-19.2-236.8-160-428.8-358.4-492.8zM320 288C320 198.4 390.4 128 480 128S640 198.4 640 288 569.6 448 480 448 320 377.6 320 288z" p-id="2422" fill="#1296db"></path></svg>